{
    "asset" : {
        "generator" : "Khronos glTF Blender I/O v1.8.19",
        "version" : "2.0"
    },
    "scene" : 0,
    "scenes" : [
        {
            "name" : "Scene",
            "nodes" : [
                5
            ]
        }
    ],
    "nodes" : [
        {
            "mesh" : 0,
            "name" : "Head+Eyes",
            "rotation" : [
                -0.5000001788139343,
                -0.4999999403953552,
                -0.5,
                0.4999997913837433
            ],
            "scale" : [
                0.509459376335144,
                0.0816299095749855,
                0.138912633061409
            ],
            "translation" : [
                0.11854369193315506,
                1.2852585315704346,
                -0.014904320240020752
            ]
        },
        {
            "mesh" : 1,
            "name" : "Left-Arm",
            "rotation" : [
                0,
                0,
                -0.7071068286895752,
                0.7071068286895752
            ],
            "scale" : [
                0.2675549387931824,
                0.16022850573062897,
                1
            ],
            "translation" : [
                -2.3259897716343403e-05,
                -0.3552520275115967,
                -3.891002655029297
            ]
        },
        {
            "mesh" : 2,
            "name" : "Left-Leg",
            "scale" : [
                0.16022850573062897,
                2.283670425415039,
                1
            ],
            "translation" : [
                0.0005111474310979247,
                -2.3093955516815186,
                -1.5026895999908447
            ]
        },
        {
            "mesh" : 3,
            "name" : "Right-Arm",
            "rotation" : [
                0,
                0,
                -0.7071068286895752,
                0.7071068286895752
            ],
            "scale" : [
                0.2675549387931824,
                0.16022850573062897,
                1
            ],
            "translation" : [
                -2.3259897716343403e-05,
                -0.3552520275115967,
                3.893537998199463
            ]
        },
        {
            "mesh" : 4,
            "name" : "Right-Leg",
            "scale" : [
                0.16022850573062897,
                2.283670425415039,
                1
            ],
            "translation" : [
                0.0005111474310979247,
                -2.3093955516815186,
                1.5021779537200928
            ]
        },
        {
            "children" : [
                0,
                1,
                2,
                3,
                4
            ],
            "mesh" : 5,
            "name" : "Torso",
            "scale" : [
                6.2410888671875,
                3.6674816608428955,
                1
            ],
            "translation" : [
                -0.0031901150941848755,
                12.509665489196777,
                0.016586661338806152
            ]
        }
    ],
    "materials" : [
        {
            "doubleSided" : true,
            "name" : "Material.007",
            "pbrMetallicRoughness" : {
                "baseColorFactor" : [
                    0,
                    0,
                    0,
                    1
                ],
                "metallicFactor" : 0,
                "roughnessFactor" : 0.5
            }
        },
        {
            "doubleSided" : true,
            "name" : "Hand",
            "pbrMetallicRoughness" : {
                "baseColorFactor" : [
                    0.9331069588661194,
                    0.4118538796901703,
                    0.19903557002544403,
                    1
                ],
                "metallicFactor" : 0,
                "roughnessFactor" : 0.5
            }
        },
        {
            "doubleSided" : true,
            "name" : "Material.002",
            "pbrMetallicRoughness" : {
                "baseColorFactor" : [
                    0,
                    0,
                    0,
                    1
                ],
                "metallicFactor" : 0,
                "roughnessFactor" : 0.5
            }
        },
        {
            "doubleSided" : true,
            "name" : "Shirt",
            "pbrMetallicRoughness" : {
                "baseColorFactor" : [
                    0.5,
                    0.06642195582389832,
                    0.03810107335448265,
                    1
                ],
                "metallicFactor" : 0,
                "roughnessFactor" : 0.4000000059604645
            }
        },
        {
            "doubleSided" : true,
            "name" : "Material.005",
            "pbrMetallicRoughness" : {
                "baseColorFactor" : [
                    0,
                    0,
                    0,
                    1
                ],
                "metallicFactor" : 0,
                "roughnessFactor" : 0.5
            }
        },
        {
            "doubleSided" : true,
            "name" : "shirt.002",
            "pbrMetallicRoughness" : {
                "baseColorFactor" : [
                    0.9331069588661194,
                    0.4118538796901703,
                    0.19903557002544403,
                    1
                ],
                "metallicFactor" : 0,
                "roughnessFactor" : 0.5
            }
        },
        {
            "doubleSided" : true,
            "name" : "Material.006",
            "pbrMetallicRoughness" : {
                "baseColorFactor" : [
                    0.5,
                    0.06642195582389832,
                    0.03810107335448265,
                    1
                ],
                "metallicFactor" : 0,
                "roughnessFactor" : 0.4000000059604645
            }
        }
    ],
    "meshes" : [
        {
            "name" : "Cube.015",
            "primitives" : [
                {
                    "attributes" : {
                        "POSITION" : 0,
                        "NORMAL" : 1,
                        "TEXCOORD_0" : 2
                    },
                    "indices" : 3,
                    "material" : 0
                },
                {
                    "attributes" : {
                        "POSITION" : 4,
                        "NORMAL" : 5,
                        "TEXCOORD_0" : 6
                    },
                    "indices" : 7,
                    "material" : 1
                },
                {
                    "attributes" : {
                        "POSITION" : 8,
                        "NORMAL" : 9,
                        "TEXCOORD_0" : 10
                    },
                    "indices" : 3,
                    "material" : 2
                }
            ]
        },
        {
            "name" : "Cube.002",
            "primitives" : [
                {
                    "attributes" : {
                        "POSITION" : 11,
                        "NORMAL" : 12,
                        "TEXCOORD_0" : 13
                    },
                    "indices" : 14,
                    "material" : 1
                },
                {
                    "attributes" : {
                        "POSITION" : 15,
                        "NORMAL" : 16,
                        "TEXCOORD_0" : 17
                    },
                    "indices" : 18,
                    "material" : 3
                }
            ]
        },
        {
            "name" : "Cube.008",
            "primitives" : [
                {
                    "attributes" : {
                        "POSITION" : 19,
                        "NORMAL" : 20,
                        "TEXCOORD_0" : 21
                    },
                    "indices" : 3,
                    "material" : 4
                }
            ]
        },
        {
            "name" : "Cube.010",
            "primitives" : [
                {
                    "attributes" : {
                        "POSITION" : 22,
                        "NORMAL" : 23,
                        "TEXCOORD_0" : 24
                    },
                    "indices" : 14,
                    "material" : 5
                },
                {
                    "attributes" : {
                        "POSITION" : 25,
                        "NORMAL" : 26,
                        "TEXCOORD_0" : 27
                    },
                    "indices" : 18,
                    "material" : 6
                }
            ]
        },
        {
            "name" : "Cube.009",
            "primitives" : [
                {
                    "attributes" : {
                        "POSITION" : 28,
                        "NORMAL" : 29,
                        "TEXCOORD_0" : 30
                    },
                    "indices" : 3,
                    "material" : 4
                }
            ]
        },
        {
            "name" : "Cube.011",
            "primitives" : [
                {
                    "attributes" : {
                        "POSITION" : 31,
                        "NORMAL" : 32,
                        "TEXCOORD_0" : 33
                    },
                    "indices" : 3,
                    "material" : 3
                }
            ]
        }
    ],
    "accessors" : [
        {
            "bufferView" : 0,
            "componentType" : 5126,
            "count" : 24,
            "max" : [
                -0.9530471563339233,
                0.7437692880630493,
                1.121576189994812
            ],
            "min" : [
                -2.0332064628601074,
                0.7115422487258911,
                -0.9658195376396179
            ],
            "type" : "VEC3"
        },
        {
            "bufferView" : 1,
            "componentType" : 5126,
            "count" : 24,
            "type" : "VEC3"
        },
        {
            "bufferView" : 2,
            "componentType" : 5126,
            "count" : 24,
            "type" : "VEC2"
        },
        {
            "bufferView" : 3,
            "componentType" : 5123,
            "count" : 36,
            "type" : "SCALAR"
        },
        {
            "bufferView" : 4,
            "componentType" : 5126,
            "count" : 24,
            "max" : [
                2.7815566062927246,
                0.6960271596908569,
                1.6345109939575195
            ],
            "min" : [
                -2.8012332916259766,
                -3.606649875640869,
                -1.9097959995269775
            ],
            "type" : "VEC3"
        },
        {
            "bufferView" : 5,
            "componentType" : 5126,
            "count" : 24,
            "type" : "VEC3"
        },
        {
            "bufferView" : 6,
            "componentType" : 5126,
            "count" : 24,
            "type" : "VEC2"
        },
        {
            "bufferView" : 7,
            "componentType" : 5123,
            "count" : 36,
            "type" : "SCALAR"
        },
        {
            "bufferView" : 8,
            "componentType" : 5126,
            "count" : 24,
            "max" : [
                2.0430445671081543,
                0.7437690496444702,
                1.1034621000289917
            ],
            "min" : [
                0.9628852605819702,
                0.711542010307312,
                -0.9839336276054382
            ],
            "type" : "VEC3"
        },
        {
            "bufferView" : 9,
            "componentType" : 5126,
            "count" : 24,
            "type" : "VEC3"
        },
        {
            "bufferView" : 10,
            "componentType" : 5126,
            "count" : 24,
            "type" : "VEC2"
        },
        {
            "bufferView" : 11,
            "componentType" : 5126,
            "count" : 24,
            "max" : [
                3.2110037803649902,
                1.0033351182937622,
                1
            ],
            "min" : [
                1.2110037803649902,
                -0.9966648817062378,
                -1
            ],
            "type" : "VEC3"
        },
        {
            "bufferView" : 12,
            "componentType" : 5126,
            "count" : 24,
            "type" : "VEC3"
        },
        {
            "bufferView" : 13,
            "componentType" : 5126,
            "count" : 24,
            "type" : "VEC2"
        },
        {
            "bufferView" : 14,
            "componentType" : 5123,
            "count" : 36,
            "type" : "SCALAR"
        },
        {
            "bufferView" : 15,
            "componentType" : 5126,
            "count" : 24,
            "max" : [
                1.2656028270721436,
                1.1839895248413086,
                1.2067018747329712
            ],
            "min" : [
                -5.687611103057861,
                -1.190659761428833,
                -1.2067018747329712
            ],
            "type" : "VEC3"
        },
        {
            "bufferView" : 16,
            "componentType" : 5126,
            "count" : 24,
            "type" : "VEC3"
        },
        {
            "bufferView" : 17,
            "componentType" : 5126,
            "count" : 24,
            "type" : "VEC2"
        },
        {
            "bufferView" : 18,
            "componentType" : 5123,
            "count" : 36,
            "type" : "SCALAR"
        },
        {
            "bufferView" : 19,
            "componentType" : 5126,
            "count" : 24,
            "max" : [
                1.2035322189331055,
                0.48187756538391113,
                1.1846234798431396
            ],
            "min" : [
                -1.2035322189331055,
                -0.48187756538391113,
                -1.1846234798431396
            ],
            "type" : "VEC3"
        },
        {
            "bufferView" : 20,
            "componentType" : 5126,
            "count" : 24,
            "type" : "VEC3"
        },
        {
            "bufferView" : 21,
            "componentType" : 5126,
            "count" : 24,
            "type" : "VEC2"
        },
        {
            "bufferView" : 22,
            "componentType" : 5126,
            "count" : 24,
            "max" : [
                3.2110037803649902,
                1.0033351182937622,
                1
            ],
            "min" : [
                1.2110037803649902,
                -0.9966648817062378,
                -1
            ],
            "type" : "VEC3"
        },
        {
            "bufferView" : 23,
            "componentType" : 5126,
            "count" : 24,
            "type" : "VEC3"
        },
        {
            "bufferView" : 24,
            "componentType" : 5126,
            "count" : 24,
            "type" : "VEC2"
        },
        {
            "bufferView" : 25,
            "componentType" : 5126,
            "count" : 24,
            "max" : [
                1.2656028270721436,
                1.1839895248413086,
                1.2067018747329712
            ],
            "min" : [
                -5.687611103057861,
                -1.190659761428833,
                -1.2067018747329712
            ],
            "type" : "VEC3"
        },
        {
            "bufferView" : 26,
            "componentType" : 5126,
            "count" : 24,
            "type" : "VEC3"
        },
        {
            "bufferView" : 27,
            "componentType" : 5126,
            "count" : 24,
            "type" : "VEC2"
        },
        {
            "bufferView" : 28,
            "componentType" : 5126,
            "count" : 24,
            "max" : [
                1.2035322189331055,
                0.48187756538391113,
                1.1846234798431396
            ],
            "min" : [
                -1.2035322189331055,
                -0.48187756538391113,
                -1.1846234798431396
            ],
            "type" : "VEC3"
        },
        {
            "bufferView" : 29,
            "componentType" : 5126,
            "count" : 24,
            "type" : "VEC3"
        },
        {
            "bufferView" : 30,
            "componentType" : 5126,
            "count" : 24,
            "type" : "VEC2"
        },
        {
            "bufferView" : 31,
            "componentType" : 5126,
            "count" : 24,
            "max" : [
                0.19369959831237793,
                1.214609146118164,
                2.6844449043273926
            ],
            "min" : [
                -0.19369959831237793,
                -1.214609146118164,
                -2.6844449043273926
            ],
            "type" : "VEC3"
        },
        {
            "bufferView" : 32,
            "componentType" : 5126,
            "count" : 24,
            "type" : "VEC3"
        },
        {
            "bufferView" : 33,
            "componentType" : 5126,
            "count" : 24,
            "type" : "VEC2"
        }
    ],
    "bufferViews" : [
        {
            "buffer" : 0,
            "byteLength" : 288,
            "byteOffset" : 0
        },
        {
            "buffer" : 0,
            "byteLength" : 288,
            "byteOffset" : 288
        },
        {
            "buffer" : 0,
            "byteLength" : 192,
            "byteOffset" : 576
        },
        {
            "buffer" : 0,
            "byteLength" : 72,
            "byteOffset" : 768
        },
        {
            "buffer" : 0,
            "byteLength" : 288,
            "byteOffset" : 840
        },
        {
            "buffer" : 0,
            "byteLength" : 288,
            "byteOffset" : 1128
        },
        {
            "buffer" : 0,
            "byteLength" : 192,
            "byteOffset" : 1416
        },
        {
            "buffer" : 0,
            "byteLength" : 72,
            "byteOffset" : 1608
        },
        {
            "buffer" : 0,
            "byteLength" : 288,
            "byteOffset" : 1680
        },
        {
            "buffer" : 0,
            "byteLength" : 288,
            "byteOffset" : 1968
        },
        {
            "buffer" : 0,
            "byteLength" : 192,
            "byteOffset" : 2256
        },
        {
            "buffer" : 0,
            "byteLength" : 288,
            "byteOffset" : 2448
        },
        {
            "buffer" : 0,
            "byteLength" : 288,
            "byteOffset" : 2736
        },
        {
            "buffer" : 0,
            "byteLength" : 192,
            "byteOffset" : 3024
        },
        {
            "buffer" : 0,
            "byteLength" : 72,
            "byteOffset" : 3216
        },
        {
            "buffer" : 0,
            "byteLength" : 288,
            "byteOffset" : 3288
        },
        {
            "buffer" : 0,
            "byteLength" : 288,
            "byteOffset" : 3576
        },
        {
            "buffer" : 0,
            "byteLength" : 192,
            "byteOffset" : 3864
        },
        {
            "buffer" : 0,
            "byteLength" : 72,
            "byteOffset" : 4056
        },
        {
            "buffer" : 0,
            "byteLength" : 288,
            "byteOffset" : 4128
        },
        {
            "buffer" : 0,
            "byteLength" : 288,
            "byteOffset" : 4416
        },
        {
            "buffer" : 0,
            "byteLength" : 192,
            "byteOffset" : 4704
        },
        {
            "buffer" : 0,
            "byteLength" : 288,
            "byteOffset" : 4896
        },
        {
            "buffer" : 0,
            "byteLength" : 288,
            "byteOffset" : 5184
        },
        {
            "buffer" : 0,
            "byteLength" : 192,
            "byteOffset" : 5472
        },
        {
            "buffer" : 0,
            "byteLength" : 288,
            "byteOffset" : 5664
        },
        {
            "buffer" : 0,
            "byteLength" : 288,
            "byteOffset" : 5952
        },
        {
            "buffer" : 0,
            "byteLength" : 192,
            "byteOffset" : 6240
        },
        {
            "buffer" : 0,
            "byteLength" : 288,
            "byteOffset" : 6432
        },
        {
            "buffer" : 0,
            "byteLength" : 288,
            "byteOffset" : 6720
        },
        {
            "buffer" : 0,
            "byteLength" : 192,
            "byteOffset" : 7008
        },
        {
            "buffer" : 0,
            "byteLength" : 288,
            "byteOffset" : 7200
        },
        {
            "buffer" : 0,
            "byteLength" : 288,
            "byteOffset" : 7488
        },
        {
            "buffer" : 0,
            "byteLength" : 192,
            "byteOffset" : 7776
        }
    ],
    "buffers" : [
        {
            "byteLength" : 7968,
            "uri" : "data:application/octet-stream;base64,"
        }
    ]
}
