{
    "asset" : {
        "generator" : "Khronos glTF Blender I/O v1.8.19",
        "version" : "2.0"
    },
    "scene" : 0,
    "scenes" : [
        {
            "name" : "Scene",
            "nodes" : [
                7
            ]
        }
    ],
    "nodes" : [
        {
            "mesh" : 0,
            "name" : "Cube.001",
            "scale" : [
                1.0556461811065674,
                0.034332819283008575,
                1.0556461811065674
            ],
            "translation" : [
                0,
                2.099289894104004,
                0
            ]
        },
        {
            "mesh" : 1,
            "name" : "Cube.002",
            "rotation" : [
                0,
                0,
                0.6587611436843872,
                0.7523522973060608
            ],
            "scale" : [
                0.5141616463661194,
                0.0719900131225586,
                0.9475117921829224
            ],
            "translation" : [
                -2.380402088165283,
                1.0753860473632812,
                0
            ]
        },
        {
            "mesh" : 2,
            "name" : "Cylinder",
            "rotation" : [
                -0.5,
                0.5,
                -0.5,
                0.5
            ],
            "scale" : [
                -0.5555781126022339,
                -0.3493775427341461,
                -1
            ],
            "translation" : [
                -2.0502915382385254,
                2.1226744651794434,
                -0.002724170684814453
            ]
        },
        {
            "mesh" : 3,
            "name" : "Cylinder.001",
            "rotation" : [
                -0.5,
                -0.5,
                0.5,
                0.5
            ],
            "scale" : [
                0.6823140382766724,
                0.5688483119010925,
                1.228115439414978
            ],
            "translation" : [
                -1.7359386682510376,
                -1.7039120197296143,
                -2.025885581970215
            ]
        },
        {
            "mesh" : 4,
            "name" : "Cylinder.002",
            "rotation" : [
                -0.5,
                -0.5,
                0.5,
                0.5
            ],
            "scale" : [
                0.6823140382766724,
                0.5688483119010925,
                1.228115439414978
            ],
            "translation" : [
                -1.7359386682510376,
                -1.7039120197296143,
                2.0300369262695312
            ]
        },
        {
            "mesh" : 5,
            "name" : "Cylinder.003",
            "rotation" : [
                -0.5,
                -0.5,
                0.5,
                0.5
            ],
            "scale" : [
                0.23686721920967102,
                0.6069163680076599,
                0.4263436794281006
            ],
            "translation" : [
                -2.043323516845703,
                2.102227210998535,
                2.165750503540039
            ]
        },
        {
            "mesh" : 6,
            "name" : "Cylinder.004",
            "rotation" : [
                -0.5,
                -0.5,
                0.5,
                0.5
            ],
            "scale" : [
                0.23686721920967102,
                0.6069163680076599,
                0.4263436794281006
            ],
            "translation" : [
                -2.043323516845703,
                2.102227210998535,
                -2.1615991592407227
            ]
        },
        {
            "children" : [
                0,
                1,
                2,
                3,
                4,
                5,
                6
            ],
            "mesh" : 7,
            "name" : "Cube",
            "scale" : [
                1,
                1.7999268770217896,
                1
            ],
            "translation" : [
                -0.0103377103805542,
                3.8189258575439453,
                -0.02395486831665039
            ]
        }
    ],
    "materials" : [
        {
            "doubleSided" : true,
            "name" : "Material.003",
            "pbrMetallicRoughness" : {
                "baseColorFactor" : [
                    0.0019342268351465464,
                    0.02539380080997944,
                    0.0029542078264057636,
                    1
                ],
                "metallicFactor" : 0,
                "roughnessFactor" : 0.5
            }
        },
        {
            "doubleSided" : true,
            "name" : "Material.002",
            "pbrMetallicRoughness" : {
                "baseColorFactor" : [
                    0.003165187779814005,
                    0.07656988501548767,
                    0.0061330487951636314,
                    1
                ],
                "metallicFactor" : 0,
                "roughnessFactor" : 0.5
            }
        }
    ],
    "meshes" : [
        {
            "name" : "Cube.004",
            "primitives" : [
                {
                    "attributes" : {
                        "POSITION" : 0,
                        "NORMAL" : 1,
                        "TEXCOORD_0" : 2
                    },
                    "indices" : 3,
                    "material" : 0
                }
            ]
        },
        {
            "name" : "Cube.005",
            "primitives" : [
                {
                    "attributes" : {
                        "POSITION" : 4,
                        "NORMAL" : 5,
                        "TEXCOORD_0" : 6
                    },
                    "indices" : 7,
                    "material" : 0
                }
            ]
        },
        {
            "name" : "Cylinder",
            "primitives" : [
                {
                    "attributes" : {
                        "POSITION" : 8,
                        "NORMAL" : 9,
                        "TEXCOORD_0" : 10
                    },
                    "indices" : 11,
                    "material" : 0
                }
            ]
        },
        {
            "name" : "Cylinder.001",
            "primitives" : [
                {
                    "attributes" : {
                        "POSITION" : 12,
                        "NORMAL" : 13,
                        "TEXCOORD_0" : 14
                    },
                    "indices" : 15,
                    "material" : 0
                }
            ]
        },
        {
            "name" : "Cylinder.002",
            "primitives" : [
                {
                    "attributes" : {
                        "POSITION" : 16,
                        "NORMAL" : 17,
                        "TEXCOORD_0" : 18
                    },
                    "indices" : 15,
                    "material" : 0
                }
            ]
        },
        {
            "name" : "Cylinder.003",
            "primitives" : [
                {
                    "attributes" : {
                        "POSITION" : 19,
                        "NORMAL" : 20,
                        "TEXCOORD_0" : 21
                    },
                    "indices" : 15,
                    "material" : 0
                }
            ]
        },
        {
            "name" : "Cylinder.004",
            "primitives" : [
                {
                    "attributes" : {
                        "POSITION" : 22,
                        "NORMAL" : 23,
                        "TEXCOORD_0" : 24
                    },
                    "indices" : 15,
                    "material" : 0
                }
            ]
        },
        {
            "name" : "Cube.003",
            "primitives" : [
                {
                    "attributes" : {
                        "POSITION" : 25,
                        "NORMAL" : 26,
                        "TEXCOORD_0" : 27
                    },
                    "indices" : 28,
                    "material" : 1
                }
            ]
        }
    ],
    "accessors" : [
        {
            "bufferView" : 0,
            "componentType" : 5126,
            "count" : 52,
            "max" : [
                2.0390286445617676,
                2.0989270210266113,
                2.0369858741760254
            ],
            "min" : [
                -2.0390286445617676,
                -2.0989270210266113,
                -2.0369858741760254
            ],
            "type" : "VEC3"
        },
        {
            "bufferView" : 1,
            "componentType" : 5126,
            "count" : 52,
            "type" : "VEC3"
        },
        {
            "bufferView" : 2,
            "componentType" : 5126,
            "count" : 52,
            "type" : "VEC2"
        },
        {
            "bufferView" : 3,
            "componentType" : 5123,
            "count" : 96,
            "type" : "SCALAR"
        },
        {
            "bufferView" : 4,
            "componentType" : 5126,
            "count" : 56,
            "max" : [
                2.0390286445617676,
                2.0989270210266113,
                2.0369858741760254
            ],
            "min" : [
                -2.0390286445617676,
                -2.0989270210266113,
                -2.0369858741760254
            ],
            "type" : "VEC3"
        },
        {
            "bufferView" : 5,
            "componentType" : 5126,
            "count" : 56,
            "type" : "VEC3"
        },
        {
            "bufferView" : 6,
            "componentType" : 5126,
            "count" : 56,
            "type" : "VEC2"
        },
        {
            "bufferView" : 7,
            "componentType" : 5123,
            "count" : 84,
            "type" : "SCALAR"
        },
        {
            "bufferView" : 8,
            "componentType" : 5126,
            "count" : 192,
            "max" : [
                0.1737987995147705,
                6.403260231018066,
                0.17100179195404053
            ],
            "min" : [
                -0.1737987995147705,
                -6.403260231018066,
                -0.17100179195404053
            ],
            "type" : "VEC3"
        },
        {
            "bufferView" : 9,
            "componentType" : 5126,
            "count" : 192,
            "type" : "VEC3"
        },
        {
            "bufferView" : 10,
            "componentType" : 5126,
            "count" : 192,
            "type" : "VEC2"
        },
        {
            "bufferView" : 11,
            "componentType" : 5123,
            "count" : 372,
            "type" : "SCALAR"
        },
        {
            "bufferView" : 12,
            "componentType" : 5126,
            "count" : 192,
            "max" : [
                0.613067626953125,
                0.27492380142211914,
                0.5908284187316895
            ],
            "min" : [
                -0.613067626953125,
                -0.27492380142211914,
                -0.5908284187316895
            ],
            "type" : "VEC3"
        },
        {
            "bufferView" : 13,
            "componentType" : 5126,
            "count" : 192,
            "type" : "VEC3"
        },
        {
            "bufferView" : 14,
            "componentType" : 5126,
            "count" : 192,
            "type" : "VEC2"
        },
        {
            "bufferView" : 15,
            "componentType" : 5123,
            "count" : 372,
            "type" : "SCALAR"
        },
        {
            "bufferView" : 16,
            "componentType" : 5126,
            "count" : 192,
            "max" : [
                0.613067626953125,
                0.27492380142211914,
                0.5908284187316895
            ],
            "min" : [
                -0.613067626953125,
                -0.27492380142211914,
                -0.5908284187316895
            ],
            "type" : "VEC3"
        },
        {
            "bufferView" : 17,
            "componentType" : 5126,
            "count" : 192,
            "type" : "VEC3"
        },
        {
            "bufferView" : 18,
            "componentType" : 5126,
            "count" : 192,
            "type" : "VEC2"
        },
        {
            "bufferView" : 19,
            "componentType" : 5126,
            "count" : 192,
            "max" : [
                0.613067626953125,
                0.27492380142211914,
                0.5908284187316895
            ],
            "min" : [
                -0.613067626953125,
                -0.27492380142211914,
                -0.5908284187316895
            ],
            "type" : "VEC3"
        },
        {
            "bufferView" : 20,
            "componentType" : 5126,
            "count" : 192,
            "type" : "VEC3"
        },
        {
            "bufferView" : 21,
            "componentType" : 5126,
            "count" : 192,
            "type" : "VEC2"
        },
        {
            "bufferView" : 22,
            "componentType" : 5126,
            "count" : 192,
            "max" : [
                0.613067626953125,
                0.27492380142211914,
                0.5908284187316895
            ],
            "min" : [
                -0.613067626953125,
                -0.27492380142211914,
                -0.5908284187316895
            ],
            "type" : "VEC3"
        },
        {
            "bufferView" : 23,
            "componentType" : 5126,
            "count" : 192,
            "type" : "VEC3"
        },
        {
            "bufferView" : 24,
            "componentType" : 5126,
            "count" : 192,
            "type" : "VEC2"
        },
        {
            "bufferView" : 25,
            "componentType" : 5126,
            "count" : 56,
            "max" : [
                2.0861876010894775,
                2.116455554962158,
                2.0369858741760254
            ],
            "min" : [
                -2.0390286445617676,
                -2.0989270210266113,
                -2.0369858741760254
            ],
            "type" : "VEC3"
        },
        {
            "bufferView" : 26,
            "componentType" : 5126,
            "count" : 56,
            "type" : "VEC3"
        },
        {
            "bufferView" : 27,
            "componentType" : 5126,
            "count" : 56,
            "type" : "VEC2"
        },
        {
            "bufferView" : 28,
            "componentType" : 5123,
            "count" : 84,
            "type" : "SCALAR"
        }
    ],
    "bufferViews" : [
        {
            "buffer" : 0,
            "byteLength" : 624,
            "byteOffset" : 0
        },
        {
            "buffer" : 0,
            "byteLength" : 624,
            "byteOffset" : 624
        },
        {
            "buffer" : 0,
            "byteLength" : 416,
            "byteOffset" : 1248
        },
        {
            "buffer" : 0,
            "byteLength" : 192,
            "byteOffset" : 1664
        },
        {
            "buffer" : 0,
            "byteLength" : 672,
            "byteOffset" : 1856
        },
        {
            "buffer" : 0,
            "byteLength" : 672,
            "byteOffset" : 2528
        },
        {
            "buffer" : 0,
            "byteLength" : 448,
            "byteOffset" : 3200
        },
        {
            "buffer" : 0,
            "byteLength" : 168,
            "byteOffset" : 3648
        },
        {
            "buffer" : 0,
            "byteLength" : 2304,
            "byteOffset" : 3816
        },
        {
            "buffer" : 0,
            "byteLength" : 2304,
            "byteOffset" : 6120
        },
        {
            "buffer" : 0,
            "byteLength" : 1536,
            "byteOffset" : 8424
        },
        {
            "buffer" : 0,
            "byteLength" : 744,
            "byteOffset" : 9960
        },
        {
            "buffer" : 0,
            "byteLength" : 2304,
            "byteOffset" : 10704
        },
        {
            "buffer" : 0,
            "byteLength" : 2304,
            "byteOffset" : 13008
        },
        {
            "buffer" : 0,
            "byteLength" : 1536,
            "byteOffset" : 15312
        },
        {
            "buffer" : 0,
            "byteLength" : 744,
            "byteOffset" : 16848
        },
        {
            "buffer" : 0,
            "byteLength" : 2304,
            "byteOffset" : 17592
        },
        {
            "buffer" : 0,
            "byteLength" : 2304,
            "byteOffset" : 19896
        },
        {
            "buffer" : 0,
            "byteLength" : 1536,
            "byteOffset" : 22200
        },
        {
            "buffer" : 0,
            "byteLength" : 2304,
            "byteOffset" : 23736
        },
        {
            "buffer" : 0,
            "byteLength" : 2304,
            "byteOffset" : 26040
        },
        {
            "buffer" : 0,
            "byteLength" : 1536,
            "byteOffset" : 28344
        },
        {
            "buffer" : 0,
            "byteLength" : 2304,
            "byteOffset" : 29880
        },
        {
            "buffer" : 0,
            "byteLength" : 2304,
            "byteOffset" : 32184
        },
        {
            "buffer" : 0,
            "byteLength" : 1536,
            "byteOffset" : 34488
        },
        {
            "buffer" : 0,
            "byteLength" : 672,
            "byteOffset" : 36024
        },
        {
            "buffer" : 0,
            "byteLength" : 672,
            "byteOffset" : 36696
        },
        {
            "buffer" : 0,
            "byteLength" : 448,
            "byteOffset" : 37368
        },
        {
            "buffer" : 0,
            "byteLength" : 168,
            "byteOffset" : 37816
        }
    ],
    "buffers" : [
        {
            "byteLength" : 37984,
            "uri" : "data:application/octet-stream;base64,"
        }
    ]
}
