{
    "asset" : {
        "generator" : "Khronos glTF Blender I/O v1.8.19",
        "version" : "2.0"
    },
    "scene" : 0,
    "scenes" : [
        {
            "name" : "Scene",
            "nodes" : [
                0,
                1,
                2,
                3,
                4,
                5,
                6,
                7
            ]
        }
    ],
    "nodes" : [
        {
            "mesh" : 0,
            "name" : "Cube",
            "scale" : [
                1,
                1.7999268770217896,
                1
            ],
            "translation" : [
                -0.0103377103805542,
                3.8189258575439453,
                -0.02395486831665039
            ]
        },
        {
            "mesh" : 1,
            "name" : "Cube.001",
            "scale" : [
                1.0556461811065674,
                0.06179656460881233,
                1.0556461811065674
            ],
            "translation" : [
                -0.0103377103805542,
                7.597494602203369,
                -0.02395486831665039
            ]
        },
        {
            "mesh" : 2,
            "name" : "Cylinder",
            "rotation" : [
                -0.5,
                -0.5,
                0.5,
                0.4999999701976776
            ],
            "scale" : [
                1,
                -0.3493775427341461,
                1
            ],
            "translation" : [
                -2.060629367828369,
                7.639584541320801,
                -0.026679039001464844
            ]
        },
        {
            "mesh" : 3,
            "name" : "Cube.002",
            "rotation" : [
                0,
                0,
                0.6666361689567566,
                0.7453832626342773
            ],
            "scale" : [
                0.912899911403656,
                0.07229966670274734,
                0.9475117921829224
            ],
            "translation" : [
                -2.390739917755127,
                5.754542350769043,
                -0.02395486831665039
            ]
        },
        {
            "mesh" : 4,
            "name" : "Cylinder.001",
            "rotation" : [
                -0.5,
                -0.5,
                0.5,
                0.4999999701976776
            ],
            "scale" : [
                1.228115439414978,
                0.5688483119010925,
                1.228115439414978
            ],
            "translation" : [
                -1.7462763786315918,
                0.7520089149475098,
                -2.0498404502868652
            ]
        },
        {
            "mesh" : 5,
            "name" : "Cylinder.002",
            "rotation" : [
                -0.5,
                -0.5,
                0.5,
                0.4999999701976776
            ],
            "scale" : [
                1.228115439414978,
                0.5688483119010925,
                1.228115439414978
            ],
            "translation" : [
                -1.7462763786315918,
                0.7520089149475098,
                2.006082057952881
            ]
        },
        {
            "mesh" : 6,
            "name" : "Cylinder.003",
            "rotation" : [
                -0.5,
                -0.5,
                0.5,
                0.4999999701976776
            ],
            "scale" : [
                0.4263436794281006,
                0.6069163680076599,
                0.4263436794281006
            ],
            "translation" : [
                -2.0536611080169678,
                7.602781772613525,
                2.1417956352233887
            ]
        },
        {
            "mesh" : 7,
            "name" : "Cylinder.004",
            "rotation" : [
                -0.5,
                -0.5,
                0.5,
                0.4999999701976776
            ],
            "scale" : [
                0.4263436794281006,
                0.6069163680076599,
                0.4263436794281006
            ],
            "translation" : [
                -2.0536611080169678,
                7.602781772613525,
                -2.185554027557373
            ]
        }
    ],
    "materials" : [
        {
            "doubleSided" : true,
            "name" : "Material.002",
            "pbrMetallicRoughness" : {
                "baseColorFactor" : [
                    0.003165187779814005,
                    0.07656988501548767,
                    0.0061330487951636314,
                    1
                ],
                "metallicFactor" : 0,
                "roughnessFactor" : 0.5
            }
        },
        {
            "doubleSided" : true,
            "name" : "Material.003",
            "pbrMetallicRoughness" : {
                "baseColorFactor" : [
                    0.0019342268351465464,
                    0.02539380080997944,
                    0.0029542078264057636,
                    1
                ],
                "metallicFactor" : 0,
                "roughnessFactor" : 0.5
            }
        }
    ],
    "meshes" : [
        {
            "name" : "Cube.003",
            "primitives" : [
                {
                    "attributes" : {
                        "POSITION" : 0,
                        "NORMAL" : 1,
                        "TEXCOORD_0" : 2
                    },
                    "indices" : 3,
                    "material" : 0
                }
            ]
        },
        {
            "name" : "Cube.004",
            "primitives" : [
                {
                    "attributes" : {
                        "POSITION" : 4,
                        "NORMAL" : 5,
                        "TEXCOORD_0" : 6
                    },
                    "indices" : 7,
                    "material" : 1
                }
            ]
        },
        {
            "name" : "Cylinder",
            "primitives" : [
                {
                    "attributes" : {
                        "POSITION" : 8,
                        "NORMAL" : 9,
                        "TEXCOORD_0" : 10
                    },
                    "indices" : 11,
                    "material" : 1
                }
            ]
        },
        {
            "name" : "Cube.005",
            "primitives" : [
                {
                    "attributes" : {
                        "POSITION" : 12,
                        "NORMAL" : 13,
                        "TEXCOORD_0" : 14
                    },
                    "indices" : 15,
                    "material" : 1
                }
            ]
        },
        {
            "name" : "Cylinder.001",
            "primitives" : [
                {
                    "attributes" : {
                        "POSITION" : 16,
                        "NORMAL" : 17,
                        "TEXCOORD_0" : 18
                    },
                    "indices" : 19,
                    "material" : 1
                }
            ]
        },
        {
            "name" : "Cylinder.002",
            "primitives" : [
                {
                    "attributes" : {
                        "POSITION" : 20,
                        "NORMAL" : 21,
                        "TEXCOORD_0" : 22
                    },
                    "indices" : 19,
                    "material" : 1
                }
            ]
        },
        {
            "name" : "Cylinder.003",
            "primitives" : [
                {
                    "attributes" : {
                        "POSITION" : 23,
                        "NORMAL" : 24,
                        "TEXCOORD_0" : 25
                    },
                    "indices" : 19,
                    "material" : 1
                }
            ]
        },
        {
            "name" : "Cylinder.004",
            "primitives" : [
                {
                    "attributes" : {
                        "POSITION" : 26,
                        "NORMAL" : 27,
                        "TEXCOORD_0" : 28
                    },
                    "indices" : 19,
                    "material" : 1
                }
            ]
        }
    ],
    "accessors" : [
        {
            "bufferView" : 0,
            "componentType" : 5126,
            "count" : 20,
            "max" : [
                2.0861876010894775,
                2.0989270210266113,
                2.0369858741760254
            ],
            "min" : [
                -2.0390286445617676,
                -2.0989270210266113,
                -2.0369858741760254
            ],
            "type" : "VEC3"
        },
        {
            "bufferView" : 1,
            "componentType" : 5126,
            "count" : 20,
            "type" : "VEC3"
        },
        {
            "bufferView" : 2,
            "componentType" : 5126,
            "count" : 20,
            "type" : "VEC2"
        },
        {
            "bufferView" : 3,
            "componentType" : 5123,
            "count" : 30,
            "type" : "SCALAR"
        },
        {
            "bufferView" : 4,
            "componentType" : 5126,
            "count" : 16,
            "max" : [
                2.0390286445617676,
                2.0989270210266113,
                2.0369858741760254
            ],
            "min" : [
                -2.0390286445617676,
                -2.0989270210266113,
                -2.0369858741760254
            ],
            "type" : "VEC3"
        },
        {
            "bufferView" : 5,
            "componentType" : 5126,
            "count" : 16,
            "type" : "VEC3"
        },
        {
            "bufferView" : 6,
            "componentType" : 5126,
            "count" : 16,
            "type" : "VEC2"
        },
        {
            "bufferView" : 7,
            "componentType" : 5123,
            "count" : 24,
            "type" : "SCALAR"
        },
        {
            "bufferView" : 8,
            "componentType" : 5126,
            "count" : 192,
            "max" : [
                0.1737987995147705,
                6.403260231018066,
                0.17100179195404053
            ],
            "min" : [
                -0.1737987995147705,
                -6.403260231018066,
                -0.17100179195404053
            ],
            "type" : "VEC3"
        },
        {
            "bufferView" : 9,
            "componentType" : 5126,
            "count" : 192,
            "type" : "VEC3"
        },
        {
            "bufferView" : 10,
            "componentType" : 5126,
            "count" : 192,
            "type" : "VEC2"
        },
        {
            "bufferView" : 11,
            "componentType" : 5123,
            "count" : 372,
            "type" : "SCALAR"
        },
        {
            "bufferView" : 12,
            "componentType" : 5126,
            "count" : 20,
            "max" : [
                2.0390286445617676,
                2.0989270210266113,
                2.0369858741760254
            ],
            "min" : [
                -2.0390286445617676,
                -2.0989270210266113,
                -2.0369858741760254
            ],
            "type" : "VEC3"
        },
        {
            "bufferView" : 13,
            "componentType" : 5126,
            "count" : 20,
            "type" : "VEC3"
        },
        {
            "bufferView" : 14,
            "componentType" : 5126,
            "count" : 20,
            "type" : "VEC2"
        },
        {
            "bufferView" : 15,
            "componentType" : 5123,
            "count" : 30,
            "type" : "SCALAR"
        },
        {
            "bufferView" : 16,
            "componentType" : 5126,
            "count" : 192,
            "max" : [
                0.613067626953125,
                0.27492380142211914,
                0.5908284187316895
            ],
            "min" : [
                -0.613067626953125,
                -0.27492380142211914,
                -0.5908284187316895
            ],
            "type" : "VEC3"
        },
        {
            "bufferView" : 17,
            "componentType" : 5126,
            "count" : 192,
            "type" : "VEC3"
        },
        {
            "bufferView" : 18,
            "componentType" : 5126,
            "count" : 192,
            "type" : "VEC2"
        },
        {
            "bufferView" : 19,
            "componentType" : 5123,
            "count" : 372,
            "type" : "SCALAR"
        },
        {
            "bufferView" : 20,
            "componentType" : 5126,
            "count" : 192,
            "max" : [
                0.613067626953125,
                0.27492380142211914,
                0.5908284187316895
            ],
            "min" : [
                -0.613067626953125,
                -0.27492380142211914,
                -0.5908284187316895
            ],
            "type" : "VEC3"
        },
        {
            "bufferView" : 21,
            "componentType" : 5126,
            "count" : 192,
            "type" : "VEC3"
        },
        {
            "bufferView" : 22,
            "componentType" : 5126,
            "count" : 192,
            "type" : "VEC2"
        },
        {
            "bufferView" : 23,
            "componentType" : 5126,
            "count" : 192,
            "max" : [
                0.613067626953125,
                0.27492380142211914,
                0.5908284187316895
            ],
            "min" : [
                -0.613067626953125,
                -0.27492380142211914,
                -0.5908284187316895
            ],
            "type" : "VEC3"
        },
        {
            "bufferView" : 24,
            "componentType" : 5126,
            "count" : 192,
            "type" : "VEC3"
        },
        {
            "bufferView" : 25,
            "componentType" : 5126,
            "count" : 192,
            "type" : "VEC2"
        },
        {
            "bufferView" : 26,
            "componentType" : 5126,
            "count" : 192,
            "max" : [
                0.613067626953125,
                0.27492380142211914,
                0.5908284187316895
            ],
            "min" : [
                -0.613067626953125,
                -0.27492380142211914,
                -0.5908284187316895
            ],
            "type" : "VEC3"
        },
        {
            "bufferView" : 27,
            "componentType" : 5126,
            "count" : 192,
            "type" : "VEC3"
        },
        {
            "bufferView" : 28,
            "componentType" : 5126,
            "count" : 192,
            "type" : "VEC2"
        }
    ],
    "bufferViews" : [
        {
            "buffer" : 0,
            "byteLength" : 240,
            "byteOffset" : 0
        },
        {
            "buffer" : 0,
            "byteLength" : 240,
            "byteOffset" : 240
        },
        {
            "buffer" : 0,
            "byteLength" : 160,
            "byteOffset" : 480
        },
        {
            "buffer" : 0,
            "byteLength" : 60,
            "byteOffset" : 640
        },
        {
            "buffer" : 0,
            "byteLength" : 192,
            "byteOffset" : 700
        },
        {
            "buffer" : 0,
            "byteLength" : 192,
            "byteOffset" : 892
        },
        {
            "buffer" : 0,
            "byteLength" : 128,
            "byteOffset" : 1084
        },
        {
            "buffer" : 0,
            "byteLength" : 48,
            "byteOffset" : 1212
        },
        {
            "buffer" : 0,
            "byteLength" : 2304,
            "byteOffset" : 1260
        },
        {
            "buffer" : 0,
            "byteLength" : 2304,
            "byteOffset" : 3564
        },
        {
            "buffer" : 0,
            "byteLength" : 1536,
            "byteOffset" : 5868
        },
        {
            "buffer" : 0,
            "byteLength" : 744,
            "byteOffset" : 7404
        },
        {
            "buffer" : 0,
            "byteLength" : 240,
            "byteOffset" : 8148
        },
        {
            "buffer" : 0,
            "byteLength" : 240,
            "byteOffset" : 8388
        },
        {
            "buffer" : 0,
            "byteLength" : 160,
            "byteOffset" : 8628
        },
        {
            "buffer" : 0,
            "byteLength" : 60,
            "byteOffset" : 8788
        },
        {
            "buffer" : 0,
            "byteLength" : 2304,
            "byteOffset" : 8848
        },
        {
            "buffer" : 0,
            "byteLength" : 2304,
            "byteOffset" : 11152
        },
        {
            "buffer" : 0,
            "byteLength" : 1536,
            "byteOffset" : 13456
        },
        {
            "buffer" : 0,
            "byteLength" : 744,
            "byteOffset" : 14992
        },
        {
            "buffer" : 0,
            "byteLength" : 2304,
            "byteOffset" : 15736
        },
        {
            "buffer" : 0,
            "byteLength" : 2304,
            "byteOffset" : 18040
        },
        {
            "buffer" : 0,
            "byteLength" : 1536,
            "byteOffset" : 20344
        },
        {
            "buffer" : 0,
            "byteLength" : 2304,
            "byteOffset" : 21880
        },
        {
            "buffer" : 0,
            "byteLength" : 2304,
            "byteOffset" : 24184
        },
        {
            "buffer" : 0,
            "byteLength" : 1536,
            "byteOffset" : 26488
        },
        {
            "buffer" : 0,
            "byteLength" : 2304,
            "byteOffset" : 28024
        },
        {
            "buffer" : 0,
            "byteLength" : 2304,
            "byteOffset" : 30328
        },
        {
            "buffer" : 0,
            "byteLength" : 1536,
            "byteOffset" : 32632
        }
    ],
    "buffers" : [
        {
            "byteLength" : 34168,
            "uri" : "data:application/octet-stream;base64,"
        }
    ]
}
