{
    "asset" : {
        "generator" : "Khronos glTF Blender I/O v1.8.19",
        "version" : "2.0"
    },
    "scene" : 0,
    "scenes" : [
        {
            "name" : "Scene",
            "nodes" : [
                1
            ]
        }
    ],
    "nodes" : [
        {
            "mesh" : 0,
            "name" : "Ammo Cartridge",
            "rotation" : [
                0,
                0.7359428405761719,
                0,
                0.6770436763763428
            ],
            "scale" : [
                -0.5134283900260925,
                -0.838849663734436,
                -1.3829257488250732
            ],
            "translation" : [
                -3.3767075538635254,
                0.00018850527703762054,
                0.423918217420578
            ]
        },
        {
            "children" : [
                0
            ],
            "mesh" : 1,
            "name" : "Base",
            "rotation" : [
                0.484767347574234,
                0.5147804617881775,
                0.5148116946220398,
                0.48473769426345825
            ],
            "scale" : [
                1.7229316234588623,
                1.4698764085769653,
                4.8687543869018555
            ],
            "translation" : [
                -3.0934104919433594,
                -3.4980971813201904,
                -0.03345654159784317
            ]
        }
    ],
    "materials" : [
        {
            "doubleSided" : true,
            "name" : "Material.007",
            "pbrMetallicRoughness" : {
                "baseColorFactor" : [
                    0.23074008524417877,
                    0.22696588933467865,
                    0.23839758336544037,
                    1
                ],
                "metallicFactor" : 0,
                "roughnessFactor" : 0.5
            }
        },
        {
            "doubleSided" : true,
            "name" : "Material.006",
            "pbrMetallicRoughness" : {
                "baseColorFactor" : [
                    0.23074008524417877,
                    0.22322800755500793,
                    0.23839758336544037,
                    1
                ],
                "metallicFactor" : 0,
                "roughnessFactor" : 0.5
            }
        },
        {
            "doubleSided" : true,
            "name" : "Material.008",
            "pbrMetallicRoughness" : {
                "baseColorFactor" : [
                    0.061246056109666824,
                    0.061246056109666824,
                    0.06301002949476242,
                    1
                ],
                "metallicFactor" : 0,
                "roughnessFactor" : 0.5
            }
        },
        {
            "doubleSided" : true,
            "name" : "Material.003",
            "pbrMetallicRoughness" : {
                "baseColorFactor" : [
                    0.061246056109666824,
                    0.06037864834070206,
                    0.06301002949476242,
                    1
                ],
                "metallicFactor" : 0,
                "roughnessFactor" : 0.5
            }
        },
        {
            "doubleSided" : true,
            "name" : "Material.005",
            "pbrMetallicRoughness" : {
                "baseColorFactor" : [
                    0.061246056109666824,
                    0.061246056109666824,
                    0.06301002949476242,
                    1
                ],
                "metallicFactor" : 0,
                "roughnessFactor" : 0.5
            }
        },
        {
            "doubleSided" : true,
            "name" : "Material.009",
            "pbrMetallicRoughness" : {
                "baseColorFactor" : [
                    0.061246056109666824,
                    0.061246056109666824,
                    0.06480327248573303,
                    1
                ],
                "metallicFactor" : 0,
                "roughnessFactor" : 0.5
            }
        },
        {
            "doubleSided" : true,
            "name" : "Material.010",
            "pbrMetallicRoughness" : {
                "baseColorFactor" : [
                    0.06301002949476242,
                    0.06301002949476242,
                    0.06480327248573303,
                    1
                ],
                "metallicFactor" : 0,
                "roughnessFactor" : 0.5
            }
        },
        {
            "doubleSided" : true,
            "name" : "Material.011",
            "pbrMetallicRoughness" : {
                "baseColorFactor" : [
                    0.06480327248573303,
                    0.06480327248573303,
                    0.06847818195819855,
                    1
                ],
                "metallicFactor" : 0,
                "roughnessFactor" : 0.5
            }
        },
        {
            "doubleSided" : true,
            "name" : "Material.012",
            "pbrMetallicRoughness" : {
                "baseColorFactor" : [
                    0.06480327248573303,
                    0.06662595272064209,
                    0.06662595272064209,
                    1
                ],
                "metallicFactor" : 0,
                "roughnessFactor" : 0.5
            }
        },
        {
            "doubleSided" : true,
            "name" : "Material.013",
            "pbrMetallicRoughness" : {
                "baseColorFactor" : [
                    0.06662595272064209,
                    0.06662595272064209,
                    0.06847818195819855,
                    1
                ],
                "metallicFactor" : 0,
                "roughnessFactor" : 0.5
            }
        },
        {
            "doubleSided" : true,
            "name" : "Material.002",
            "pbrMetallicRoughness" : {
                "baseColorFactor" : [
                    0.11443537473678589,
                    0.11443537473678589,
                    0.11443537473678589,
                    1
                ],
                "metallicFactor" : 0,
                "roughnessFactor" : 0.5
            }
        }
    ],
    "meshes" : [
        {
            "name" : "Cube.017",
            "primitives" : [
                {
                    "attributes" : {
                        "POSITION" : 0,
                        "NORMAL" : 1,
                        "TEXCOORD_0" : 2
                    },
                    "indices" : 3,
                    "material" : 0
                },
                {
                    "attributes" : {
                        "POSITION" : 4,
                        "NORMAL" : 5,
                        "TEXCOORD_0" : 6
                    },
                    "indices" : 7,
                    "material" : 1
                }
            ]
        },
        {
            "name" : "Weapon Body",
            "primitives" : [
                {
                    "attributes" : {
                        "POSITION" : 8,
                        "NORMAL" : 9,
                        "TEXCOORD_0" : 10
                    },
                    "indices" : 3,
                    "material" : 2
                },
                {
                    "attributes" : {
                        "POSITION" : 11,
                        "NORMAL" : 12,
                        "TEXCOORD_0" : 13
                    },
                    "indices" : 14,
                    "material" : 3
                },
                {
                    "attributes" : {
                        "POSITION" : 15,
                        "NORMAL" : 16,
                        "TEXCOORD_0" : 17
                    },
                    "indices" : 18,
                    "material" : 4
                },
                {
                    "attributes" : {
                        "POSITION" : 19,
                        "NORMAL" : 20,
                        "TEXCOORD_0" : 21
                    },
                    "indices" : 22,
                    "material" : 5
                },
                {
                    "attributes" : {
                        "POSITION" : 23,
                        "NORMAL" : 24,
                        "TEXCOORD_0" : 25
                    },
                    "indices" : 18,
                    "material" : 6
                },
                {
                    "attributes" : {
                        "POSITION" : 26,
                        "NORMAL" : 27,
                        "TEXCOORD_0" : 28
                    },
                    "indices" : 7,
                    "material" : 7
                },
                {
                    "attributes" : {
                        "POSITION" : 29,
                        "NORMAL" : 30,
                        "TEXCOORD_0" : 31
                    },
                    "indices" : 7,
                    "material" : 8
                },
                {
                    "attributes" : {
                        "POSITION" : 32,
                        "NORMAL" : 33,
                        "TEXCOORD_0" : 34
                    },
                    "indices" : 35,
                    "material" : 9
                },
                {
                    "attributes" : {
                        "POSITION" : 36,
                        "NORMAL" : 37,
                        "TEXCOORD_0" : 38
                    },
                    "indices" : 39,
                    "material" : 10
                }
            ]
        }
    ],
    "accessors" : [
        {
            "bufferView" : 0,
            "componentType" : 5126,
            "count" : 24,
            "max" : [
                1,
                1,
                1
            ],
            "min" : [
                -1,
                -1,
                -1
            ],
            "type" : "VEC3"
        },
        {
            "bufferView" : 1,
            "componentType" : 5126,
            "count" : 24,
            "type" : "VEC3"
        },
        {
            "bufferView" : 2,
            "componentType" : 5126,
            "count" : 24,
            "type" : "VEC2"
        },
        {
            "bufferView" : 3,
            "componentType" : 5123,
            "count" : 36,
            "type" : "SCALAR"
        },
        {
            "bufferView" : 4,
            "componentType" : 5126,
            "count" : 24,
            "max" : [
                1.1820557117462158,
                1,
                -0.7421215176582336
            ],
            "min" : [
                -0.9914216995239258,
                -1,
                -2.7212867736816406
            ],
            "type" : "VEC3"
        },
        {
            "bufferView" : 5,
            "componentType" : 5126,
            "count" : 24,
            "type" : "VEC3"
        },
        {
            "bufferView" : 6,
            "componentType" : 5126,
            "count" : 24,
            "type" : "VEC2"
        },
        {
            "bufferView" : 7,
            "componentType" : 5123,
            "count" : 36,
            "type" : "SCALAR"
        },
        {
            "bufferView" : 8,
            "componentType" : 5126,
            "count" : 24,
            "max" : [
                1,
                1,
                1
            ],
            "min" : [
                -1,
                -1,
                -1
            ],
            "type" : "VEC3"
        },
        {
            "bufferView" : 9,
            "componentType" : 5126,
            "count" : 24,
            "type" : "VEC3"
        },
        {
            "bufferView" : 10,
            "componentType" : 5126,
            "count" : 24,
            "type" : "VEC2"
        },
        {
            "bufferView" : 11,
            "componentType" : 5126,
            "count" : 362,
            "max" : [
                2.914771795272827,
                1.0000606775283813,
                4.941662788391113
            ],
            "min" : [
                -1.996783971786499,
                -1.0001657009124756,
                -3.6641998291015625
            ],
            "type" : "VEC3"
        },
        {
            "bufferView" : 12,
            "componentType" : 5126,
            "count" : 362,
            "type" : "VEC3"
        },
        {
            "bufferView" : 13,
            "componentType" : 5126,
            "count" : 362,
            "type" : "VEC2"
        },
        {
            "bufferView" : 14,
            "componentType" : 5123,
            "count" : 552,
            "type" : "SCALAR"
        },
        {
            "bufferView" : 15,
            "componentType" : 5126,
            "count" : 24,
            "max" : [
                2.122411012649536,
                1.00014066696167,
                -0.3504655957221985
            ],
            "min" : [
                -3.8663933277130127,
                -1.0000278949737549,
                -1.6076021194458008
            ],
            "type" : "VEC3"
        },
        {
            "bufferView" : 16,
            "componentType" : 5126,
            "count" : 24,
            "type" : "VEC3"
        },
        {
            "bufferView" : 17,
            "componentType" : 5126,
            "count" : 24,
            "type" : "VEC2"
        },
        {
            "bufferView" : 18,
            "componentType" : 5123,
            "count" : 36,
            "type" : "SCALAR"
        },
        {
            "bufferView" : 19,
            "componentType" : 5126,
            "count" : 216,
            "max" : [
                3.383711576461792,
                0.9998904466629028,
                0.921128511428833
            ],
            "min" : [
                2.7623789310455322,
                -1.0003491640090942,
                -0.9095706939697266
            ],
            "type" : "VEC3"
        },
        {
            "bufferView" : 20,
            "componentType" : 5126,
            "count" : 216,
            "type" : "VEC3"
        },
        {
            "bufferView" : 21,
            "componentType" : 5126,
            "count" : 216,
            "type" : "VEC2"
        },
        {
            "bufferView" : 22,
            "componentType" : 5123,
            "count" : 408,
            "type" : "SCALAR"
        },
        {
            "bufferView" : 23,
            "componentType" : 5126,
            "count" : 24,
            "max" : [
                3.95745849609375,
                1.0000600814819336,
                -0.5854401588439941
            ],
            "min" : [
                0.9970434904098511,
                -1.000356674194336,
                -1.2437987327575684
            ],
            "type" : "VEC3"
        },
        {
            "bufferView" : 24,
            "componentType" : 5126,
            "count" : 24,
            "type" : "VEC3"
        },
        {
            "bufferView" : 25,
            "componentType" : 5126,
            "count" : 24,
            "type" : "VEC2"
        },
        {
            "bufferView" : 26,
            "componentType" : 5126,
            "count" : 24,
            "max" : [
                3.9633443355560303,
                0.9998664855957031,
                0.852261483669281
            ],
            "min" : [
                2.8818600177764893,
                -1.0003175735473633,
                -0.929229199886322
            ],
            "type" : "VEC3"
        },
        {
            "bufferView" : 27,
            "componentType" : 5126,
            "count" : 24,
            "type" : "VEC3"
        },
        {
            "bufferView" : 28,
            "componentType" : 5126,
            "count" : 24,
            "type" : "VEC2"
        },
        {
            "bufferView" : 29,
            "componentType" : 5126,
            "count" : 24,
            "max" : [
                3.5419979095458984,
                0.999880313873291,
                0.41242021322250366
            ],
            "min" : [
                2.86551570892334,
                -1.0002977848052979,
                -0.7019253373146057
            ],
            "type" : "VEC3"
        },
        {
            "bufferView" : 30,
            "componentType" : 5126,
            "count" : 24,
            "type" : "VEC3"
        },
        {
            "bufferView" : 31,
            "componentType" : 5126,
            "count" : 24,
            "type" : "VEC2"
        },
        {
            "bufferView" : 32,
            "componentType" : 5126,
            "count" : 24,
            "max" : [
                2.9741573333740234,
                0.9999818205833435,
                0.9424382448196411
            ],
            "min" : [
                1.619869351387024,
                -1.0002937316894531,
                0.8293627500534058
            ],
            "type" : "VEC3"
        },
        {
            "bufferView" : 33,
            "componentType" : 5126,
            "count" : 24,
            "type" : "VEC3"
        },
        {
            "bufferView" : 34,
            "componentType" : 5126,
            "count" : 24,
            "type" : "VEC2"
        },
        {
            "bufferView" : 35,
            "componentType" : 5123,
            "count" : 36,
            "type" : "SCALAR"
        },
        {
            "bufferView" : 36,
            "componentType" : 5126,
            "count" : 24,
            "max" : [
                1.317108154296875,
                1.0889593362808228,
                0.8960288763046265
            ],
            "min" : [
                0.2265682816505432,
                -1.0942906141281128,
                -0.23651394248008728
            ],
            "type" : "VEC3"
        },
        {
            "bufferView" : 37,
            "componentType" : 5126,
            "count" : 24,
            "type" : "VEC3"
        },
        {
            "bufferView" : 38,
            "componentType" : 5126,
            "count" : 24,
            "type" : "VEC2"
        },
        {
            "bufferView" : 39,
            "componentType" : 5123,
            "count" : 36,
            "type" : "SCALAR"
        }
    ],
    "bufferViews" : [
        {
            "buffer" : 0,
            "byteLength" : 288,
            "byteOffset" : 0
        },
        {
            "buffer" : 0,
            "byteLength" : 288,
            "byteOffset" : 288
        },
        {
            "buffer" : 0,
            "byteLength" : 192,
            "byteOffset" : 576
        },
        {
            "buffer" : 0,
            "byteLength" : 72,
            "byteOffset" : 768
        },
        {
            "buffer" : 0,
            "byteLength" : 288,
            "byteOffset" : 840
        },
        {
            "buffer" : 0,
            "byteLength" : 288,
            "byteOffset" : 1128
        },
        {
            "buffer" : 0,
            "byteLength" : 192,
            "byteOffset" : 1416
        },
        {
            "buffer" : 0,
            "byteLength" : 72,
            "byteOffset" : 1608
        },
        {
            "buffer" : 0,
            "byteLength" : 288,
            "byteOffset" : 1680
        },
        {
            "buffer" : 0,
            "byteLength" : 288,
            "byteOffset" : 1968
        },
        {
            "buffer" : 0,
            "byteLength" : 192,
            "byteOffset" : 2256
        },
        {
            "buffer" : 0,
            "byteLength" : 4344,
            "byteOffset" : 2448
        },
        {
            "buffer" : 0,
            "byteLength" : 4344,
            "byteOffset" : 6792
        },
        {
            "buffer" : 0,
            "byteLength" : 2896,
            "byteOffset" : 11136
        },
        {
            "buffer" : 0,
            "byteLength" : 1104,
            "byteOffset" : 14032
        },
        {
            "buffer" : 0,
            "byteLength" : 288,
            "byteOffset" : 15136
        },
        {
            "buffer" : 0,
            "byteLength" : 288,
            "byteOffset" : 15424
        },
        {
            "buffer" : 0,
            "byteLength" : 192,
            "byteOffset" : 15712
        },
        {
            "buffer" : 0,
            "byteLength" : 72,
            "byteOffset" : 15904
        },
        {
            "buffer" : 0,
            "byteLength" : 2592,
            "byteOffset" : 15976
        },
        {
            "buffer" : 0,
            "byteLength" : 2592,
            "byteOffset" : 18568
        },
        {
            "buffer" : 0,
            "byteLength" : 1728,
            "byteOffset" : 21160
        },
        {
            "buffer" : 0,
            "byteLength" : 816,
            "byteOffset" : 22888
        },
        {
            "buffer" : 0,
            "byteLength" : 288,
            "byteOffset" : 23704
        },
        {
            "buffer" : 0,
            "byteLength" : 288,
            "byteOffset" : 23992
        },
        {
            "buffer" : 0,
            "byteLength" : 192,
            "byteOffset" : 24280
        },
        {
            "buffer" : 0,
            "byteLength" : 288,
            "byteOffset" : 24472
        },
        {
            "buffer" : 0,
            "byteLength" : 288,
            "byteOffset" : 24760
        },
        {
            "buffer" : 0,
            "byteLength" : 192,
            "byteOffset" : 25048
        },
        {
            "buffer" : 0,
            "byteLength" : 288,
            "byteOffset" : 25240
        },
        {
            "buffer" : 0,
            "byteLength" : 288,
            "byteOffset" : 25528
        },
        {
            "buffer" : 0,
            "byteLength" : 192,
            "byteOffset" : 25816
        },
        {
            "buffer" : 0,
            "byteLength" : 288,
            "byteOffset" : 26008
        },
        {
            "buffer" : 0,
            "byteLength" : 288,
            "byteOffset" : 26296
        },
        {
            "buffer" : 0,
            "byteLength" : 192,
            "byteOffset" : 26584
        },
        {
            "buffer" : 0,
            "byteLength" : 72,
            "byteOffset" : 26776
        },
        {
            "buffer" : 0,
            "byteLength" : 288,
            "byteOffset" : 26848
        },
        {
            "buffer" : 0,
            "byteLength" : 288,
            "byteOffset" : 27136
        },
        {
            "buffer" : 0,
            "byteLength" : 192,
            "byteOffset" : 27424
        },
        {
            "buffer" : 0,
            "byteLength" : 72,
            "byteOffset" : 27616
        }
    ],
    "buffers" : [
        {
            "byteLength" : 27688,
            "uri" : "data:application/octet-stream;base64,"
        }
    ]
}
